<svg data-v-0dd9719b="" version="1.0" xmlns="http://www.w3.org/2000/svg" xmlns:xlink="http://www.w3.org/1999/xlink" width="100%" height="100%" viewBox="0 0 340.000000 250.000000" preserveAspectRatio="xMidYMid meet" color-interpolation-filters="sRGB" style="margin: auto;"> <rect data-v-0dd9719b="" x="0" y="0" width="100%" height="100%" fill="#fff" fill-opacity="1" class="background"></rect> <rect data-v-0dd9719b="" x="0" y="0" width="100%" height="100%" fill="url(#watermark)" fill-opacity="1" class="watermarklayer"></rect> <g data-v-0dd9719b="" fill="#333" class="icon-text-wrapper icon-svg-group iconsvg" transform="translate(59.724998474121094,90.2701416015625)"><g class="iconsvg-imagesvg" transform="translate(0,0)"><g><rect fill="#333" fill-opacity="0" stroke-width="2" x="0" y="0" width="60" height="69.45971915120224" class="image-rect"></rect> <svg x="0" y="0" width="60" height="69.45971915120224" filtersec="colorsb2504374575" class="image-svg-svg primary" style="overflow: visible;"><svg xmlns="http://www.w3.org/2000/svg" viewBox="0 0 209.44000244140625 242.45997619628906"><path d="M209.44 181.72A275.84 275.84 0 0 1 0 60.01l24.15-13.74a247.78 247.78 0 0 0 185.29 107.74v27.71zm0-74.23A202.36 202.36 0 0 1 64.59 23.14l-24.34 14a231.42 231.42 0 0 0 169.19 98.32v-28zm0-46.75A156.5 156.5 0 0 1 105.08 0l-24.1 14a183.74 183.74 0 0 0 128.46 74.71v-28z" fill="#004897" fill-rule="evenodd"></path><path d="M209.44 88.46A249.21 249.21 0 0 0 24.15 196.19L0 182.46A275.84 275.84 0 0 1 209.44 60.74v27.72zm0 18.8a229.93 229.93 0 0 0-169.19 98.32l24.34 13.74a201.31 201.31 0 0 1 144.85-84.11v-28zm0 46.76a182.91 182.91 0 0 0-128.46 74.71l24.1 13.73a156.5 156.5 0 0 1 104.36-60.74v-27.71z" fill="#cf0037" fill-rule="evenodd"></path></svg></svg> <!----></g></g> <g transform="translate(67,7.138608932495117)"><g data-gra="path-name" fill-rule="" class="tp-name iconsvg-namesvg" transform="translate(0,0)"><g transform="scale(1)"><g><path d="M11.79-28.98Q12.2-28.57 12.2-28.17L12.2-28.17Q12.2-27.81 11.88-27.4L11.88-27.4Q11.56-27 11.03-27L11.03-27Q10.66-27 10.3-27.27L10.3-27.27 4.81-32.17Q4.41-32.53 4.41-32.98L4.41-32.98Q4.41-33.39 4.68-33.7L4.68-33.7Q5-34.16 5.58-34.16L5.58-34.16Q5.98-34.16 6.3-33.88L6.3-33.88 11.79-28.98ZM36.45-32.09Q36.99-32.09 37.28-31.72 37.57-31.36 37.57-30.96L37.57-30.96Q37.57-30.55 37.28-30.2 36.99-29.83 36.45-29.83L36.45-29.83 33.57-29.83 33.57-0.4Q33.57 2.61 30.87 3.19L30.87 3.19Q30.69 3.24 30.24 3.33 29.79 3.42 29.43 3.42L29.43 3.42Q28.98 3.42 28.69 3.08 28.39 2.75 28.39 2.34L28.39 2.34Q28.39 1.93 28.69 1.62 28.98 1.3 29.52 1.21L29.52 1.21Q30.55 1.03 30.94 0.4 31.32-0.22 31.32-1.89L31.32-1.89 31.32-29.83 14.49-29.83Q13.95-29.83 13.66-30.2 13.37-30.55 13.37-30.96L13.37-30.96Q13.37-31.36 13.66-31.72 13.95-32.09 14.49-32.09L14.49-32.09 36.45-32.09ZM10.08-17.14Q9.81-16.79 9.22-16.79L9.22-16.79Q8.78-16.79 8.5-17.05L8.5-17.05 2.75-22.14Q2.29-22.54 2.29-22.99L2.29-22.99Q2.29-23.4 2.61-23.71L2.61-23.71Q2.97-24.07 3.51-24.07L3.51-24.07Q3.96-24.07 4.23-23.8L4.23-23.8 9.95-18.77Q10.39-18.36 10.39-17.91L10.39-17.91Q10.39-17.55 10.08-17.14L10.08-17.14ZM21.15-23.49Q22.77-23.49 23.94-22.54 25.11-21.6 25.72-20.14 26.32-18.68 26.32-17.14L26.32-17.14 26.32-12.42Q26.32-10.89 25.72-9.43 25.11-7.96 23.94-7.02 22.77-6.08 21.15-6.08L21.15-6.08 19.8-6.08Q17.37-6.08 16-7.9 14.63-9.72 14.63-12.42L14.63-12.42 14.63-17.14Q14.63-19.84 16-21.67 17.37-23.49 19.8-23.49L19.8-23.49 21.15-23.49ZM24.07-12.64L24.07-16.92Q24.07-18.59 23.2-19.91 22.32-21.24 20.47-21.24L20.47-21.24Q18.72-21.24 17.8-19.89 16.88-18.54 16.88-16.92L16.88-16.92 16.88-12.64Q16.88-11.03 17.8-9.67 18.72-8.32 20.47-8.32L20.47-8.32Q22.32-8.32 23.2-9.65 24.07-10.98 24.07-12.64L24.07-12.64ZM9.76-12.42Q10.08-12.33 10.28-12.04 10.48-11.74 10.48-11.38L10.48-11.38Q10.48-11.16 10.44-11.03L10.44-11.03 5.76 2.83Q5.49 3.6 4.77 3.6L4.77 3.6Q4.32 3.6 3.98 3.28 3.65 2.97 3.65 2.48L3.65 2.48Q3.65 2.25 3.69 2.11L3.69 2.11 8.37-11.74Q8.64-12.51 9.36-12.51L9.36-12.51Q9.49-12.51 9.76-12.42L9.76-12.42ZM75.28-30.87Q75.82-30.87 76.12-30.51 76.41-30.15 76.41-29.74L76.41-29.74Q76.41-29.34 76.12-28.98 75.82-28.62 75.28-28.62L75.28-28.62 60.03-28.62 60.03-23.4 60.03-23.31 66.87-23.31Q70.29-23.31 71.95-21.42 73.62-19.53 73.62-16.96L73.62-16.96 73.62-0.49Q73.62 1.35 72.52 2.29 71.41 3.24 69.57 3.33L69.57 3.33Q69.08 3.38 68.76 3.01 68.44 2.65 68.44 2.25L68.44 2.25Q68.44 1.26 69.44 1.08L69.44 1.08Q70.61 0.85 70.99 0.27 71.37-0.32 71.37-1.98L71.37-1.98 71.37-16.74Q71.37-18.5 70.29-19.78 69.21-21.06 66.42-21.06L66.42-21.06 51.25-21.06Q48.47-21.06 47.38-19.78 46.3-18.5 46.3-16.74L46.3-16.74 46.3 2.79Q46.3 3.33 45.95 3.62 45.59 3.92 45.18 3.92L45.18 3.92Q44.77 3.92 44.41 3.62 44.05 3.33 44.05 2.79L44.05 2.79 44.05-16.96Q44.05-19.53 45.72-21.42 47.38-23.31 50.8-23.31L50.8-23.31 57.78-23.31 57.78-23.4 57.78-28.62 42.48-28.62Q41.94-28.62 41.65-28.98 41.35-29.34 41.35-29.74L41.35-29.74Q41.35-30.15 41.65-30.51 41.94-30.87 42.48-30.87L42.48-30.87 57.78-30.87 57.78-34.96Q57.78-35.5 58.14-35.8 58.5-36.09 58.91-36.09L58.91-36.09Q59.31-36.09 59.67-35.8 60.03-35.5 60.03-34.96L60.03-34.96 60.03-30.87 75.28-30.87ZM56.16-14.17Q55.84-13.95 55.44-13.95L55.44-13.95Q54.9-13.95 54.59-14.45L54.59-14.45 52.24-17.91Q52.02-18.27 52.02-18.59L52.02-18.59Q52.02-19.13 52.52-19.44L52.52-19.44Q52.88-19.66 53.19-19.66L53.19-19.66Q53.73-19.66 54.09-19.17L54.09-19.17 56.43-15.75Q56.66-15.48 56.66-15.07L56.66-15.07Q56.66-14.49 56.16-14.17L56.16-14.17ZM69.34-5.98Q69.34-5.58 69.05-5.22 68.76-4.86 68.22-4.86L68.22-4.86 59.98-4.86 59.98 1.98Q59.98 2.52 59.63 2.81 59.27 3.1 58.86 3.1L58.86 3.1Q58.45 3.1 58.09 2.81 57.73 2.52 57.73 1.98L57.73 1.98 57.73-4.86 49.45-4.86Q48.91-4.86 48.62-5.22 48.33-5.58 48.33-5.98L48.33-5.98Q48.33-6.39 48.62-6.75 48.91-7.11 49.45-7.11L49.45-7.11 57.73-7.11 57.73-11.56 50.31-11.56Q49.77-11.56 49.48-11.92 49.19-12.29 49.19-12.69L49.19-12.69Q49.19-13.09 49.48-13.46 49.77-13.81 50.31-13.81L50.31-13.81 60.03-13.81 63.59-19.13Q63.9-19.62 64.44-19.62L64.44-19.62Q64.84-19.62 65.16-19.39L65.16-19.39Q65.61-19.08 65.61-18.5L65.61-18.5Q65.61-18.18 65.43-17.86L65.43-17.86 62.73-13.81 67.36-13.81Q67.91-13.81 68.2-13.46 68.49-13.09 68.49-12.69L68.49-12.69Q68.49-12.29 68.2-11.92 67.91-11.56 67.36-11.56L67.36-11.56 59.98-11.56 59.98-7.11 68.22-7.11Q68.76-7.11 69.05-6.75 69.34-6.39 69.34-5.98L69.34-5.98ZM114.88-16.74Q115.42-16.74 115.72-16.38 116.01-16.02 116.01-15.62L116.01-15.62Q116.01-15.21 115.72-14.85 115.42-14.49 114.88-14.49L114.88-14.49 112.19-14.49 112.19-13.18Q112.19-10.39 110.54-8.62 108.9-6.84 105.44-6.84L105.44-6.84 102.42-6.84 102.42-0.99Q102.42 0.85 101.32 1.82 100.22 2.79 98.37 2.88L98.37 2.88Q97.88 2.92 97.56 2.56 97.25 2.21 97.25 1.8L97.25 1.8Q97.25 0.81 98.23 0.63L98.23 0.63Q99.41 0.4 99.79-0.18 100.17-0.77 100.17-2.43L100.17-2.43 100.17-6.84 91.48-6.84Q90.94-6.84 90.65-7.2 90.36-7.56 90.36-7.96L90.36-7.96Q90.36-8.37 90.65-8.73 90.94-9.09 91.48-9.09L91.48-9.09 100.17-9.09 100.17-14.49 90.31-14.49Q89.78-14.49 89.48-14.85 89.19-15.21 89.19-15.62L89.19-15.62Q89.19-16.02 89.48-16.38 89.78-16.74 90.31-16.74L90.31-16.74 100.17-16.74 100.17-22.14 92.92-22.14Q92.39-22.14 92.09-22.5 91.8-22.86 91.8-23.27L91.8-23.27Q91.8-23.45 91.89-23.71L91.89-23.71Q91.58-23.49 91.26-23.49L91.26-23.49Q90.94-23.49 90.58-23.71L90.58-23.71Q90.09-24.03 90.09-24.57L90.09-24.57Q90.09-25.02 90.41-25.38L90.41-25.38Q92.88-28.26 94.23-30.33 95.58-32.4 97.2-35.73L97.2-35.73Q97.61-36.31 98.23-36.31L98.23-36.31Q98.55-36.31 98.82-36.18L98.82-36.18Q99.05-36.05 99.2-35.75 99.36-35.46 99.36-35.14L99.36-35.14Q99.36-34.88 99.22-34.6L99.22-34.6 98.06-32.35 106.02-32.35Q107.14-32.35 107.71-31.68 108.27-31 108.27-30.06L108.27-30.06Q108.27-29.11 107.73-28.35L107.73-28.35 104.94-24.39 105.44-24.39Q108.94-24.39 110.56-22.61 112.19-20.84 112.19-18.04L112.19-18.04 112.19-16.74 114.88-16.74ZM85.32-23.09L81.36-32.76Q81.27-33.03 81.27-33.16L81.27-33.16Q81.27-33.84 82.03-34.2L82.03-34.2Q82.31-34.29 82.48-34.29L82.48-34.29Q82.8-34.29 83.07-34.13 83.34-33.98 83.47-33.62L83.47-33.62 87.44-23.94Q87.53-23.58 87.53-23.49L87.53-23.49Q87.53-23.13 87.32-22.84 87.12-22.54 86.81-22.41L86.81-22.41Q86.63-22.32 86.44-22.32L86.44-22.32Q86.08-22.32 85.77-22.52 85.45-22.72 85.32-23.09L85.32-23.09ZM92.39-24.25Q92.66-24.39 92.92-24.39L92.92-24.39 102.06-24.39 105.25-28.89Q105.34-29.02 105.55-29.32 105.75-29.61 105.75-29.79L105.75-29.79Q105.75-30.11 104.98-30.11L104.98-30.11 96.75-30.11Q95.22-27.63 92.39-24.25L92.39-24.25ZM102.42-22.14L102.42-16.74 109.94-16.74 109.94-17.82Q109.94-19.57 108.86-20.86 107.78-22.14 104.98-22.14L104.98-22.14 102.42-22.14ZM86.67-15.88Q87.08-15.88 87.41-15.52 87.75-15.16 87.75-14.67L87.75-14.67Q87.75-14.45 87.7-14.31L87.7-14.31 83.47 0.94Q83.34 1.44 82.84 1.62 82.35 1.8 81.99 1.67L81.99 1.67Q81.63 1.53 81.41 1.13 81.18 0.72 81.31 0.22L81.31 0.22 85.55-15.03Q85.64-15.43 85.97-15.66 86.31-15.88 86.67-15.88L86.67-15.88ZM109.94-13.41L109.94-14.49 102.42-14.49 102.42-9.09 104.98-9.09Q107.78-9.09 108.86-10.37 109.94-11.65 109.94-13.41L109.94-13.41ZM154.71 0.85Q155.25 0.85 155.54 1.21 155.84 1.57 155.84 1.98L155.84 1.98Q155.84 2.38 155.54 2.75 155.25 3.1 154.71 3.1L154.71 3.1 140.9 3.1Q137.38 3.1 135.76 1.33 134.15-0.45 134.15-3.24L134.15-3.24 134.15-22.14Q133.25-20.43 132.71-19.53L132.71-19.53Q132.39-19.04 131.85-19.04L131.85-19.04Q131.49-19.04 131.18-19.26L131.18-19.26Q130.63-19.57 130.63-20.2L130.63-20.2Q130.63-20.47 130.86-20.84L130.86-20.84Q133.2-24.84 134.46-27.97 135.72-31.09 136.66-35.1L136.66-35.1Q136.8-35.55 137.2-35.75 137.61-35.95 138.01-35.87L138.01-35.87Q138.42-35.77 138.69-35.37 138.96-34.96 138.82-34.47L138.82-34.47Q137.93-30.78 137.03-28.48L137.03-28.48 154.13-28.48Q154.66-28.48 154.96-28.13 155.25-27.77 155.25-27.36L155.25-27.36Q155.25-26.95 154.96-26.59 154.66-26.23 154.13-26.23L154.13-26.23 146.79-26.23 146.79-18.68 153.41-18.68Q153.94-18.68 154.24-18.31 154.53-17.95 154.53-17.55L154.53-17.55Q154.53-17.14 154.24-16.79 153.94-16.43 153.41-16.43L153.41-16.43 146.79-16.43 146.79-9.04 153.41-9.04Q153.94-9.04 154.24-8.69 154.53-8.32 154.53-7.92L154.53-7.92Q154.53-7.51 154.24-7.15 153.94-6.79 153.41-6.79L153.41-6.79 146.79-6.79 146.79 0.85 154.71 0.85ZM130.68-16.83Q131.04-16.92 131.18-16.92L131.18-16.92Q131.85-16.92 132.12-16.25L132.12-16.25Q132.21-15.88 132.21-15.75L132.21-15.75Q132.21-14.98 131.44-14.76L131.44-14.76 127.94-13.54 127.94-0.77Q127.94 2.61 124.42 3.06L124.42 3.06Q123.89 3.1 123.53 2.77 123.17 2.43 123.17 1.93L123.17 1.93Q123.17 1.08 124.11 0.85L124.11 0.85Q125.14 0.67 125.42 0.07 125.69-0.54 125.69-2.25L125.69-2.25 125.69-12.73 121.23-11.16Q121.09-11.12 120.87-11.12L120.87-11.12Q120.51-11.12 120.22-11.34 119.92-11.56 119.83-11.83L119.83-11.83 119.79-12.15Q119.79-12.91 120.51-13.23L120.51-13.23 125.69-15.07 125.69-25.43 121.64-25.43Q121.09-25.43 120.8-25.79 120.51-26.14 120.51-26.55L120.51-26.55Q120.51-26.95 120.8-27.31 121.09-27.68 121.64-27.68L121.64-27.68 125.69-27.68 125.69-34.74Q125.69-35.28 126.05-35.57 126.41-35.87 126.81-35.87L126.81-35.87Q127.22-35.87 127.58-35.57 127.94-35.28 127.94-34.74L127.94-34.74 127.94-27.68 131.4-27.68Q131.94-27.68 132.23-27.31 132.53-26.95 132.53-26.55L132.53-26.55Q132.53-26.14 132.23-25.79 131.94-25.43 131.4-25.43L131.4-25.43 127.94-25.43 127.94-15.84 130.68-16.83ZM146.16-29.56L143.46-34.06Q143.28-34.29 143.28-34.6L143.28-34.6Q143.28-35.19 143.87-35.59L143.87-35.59Q144.13-35.73 144.45-35.73L144.45-35.73Q145.03-35.73 145.4-35.19L145.4-35.19 148.09-30.69Q148.23-30.42 148.23-30.11L148.23-30.11Q148.23-29.52 147.69-29.16L147.69-29.16Q147.33-28.98 147.06-28.98L147.06-28.98Q146.47-28.98 146.16-29.56L146.16-29.56ZM144.54-18.68L144.54-26.23 136.4-26.23 136.4-18.68 144.54-18.68ZM144.54-9.04L144.54-16.43 136.4-16.43 136.4-9.04 144.54-9.04ZM136.4-3.46Q136.4-1.48 137.47-0.32 138.56 0.85 141.34 0.85L141.34 0.85 144.54 0.85 144.54-6.79 136.4-6.79 136.4-3.46Z" transform="translate(-2.2899999618530273, 36.310001373291016)"></path></g> <!----> <!----> <!----> <!----> <!----> <!----> <!----></g></g> <g data-gra="path-slogan" fill-rule="" class="tp-slogan iconsvg-slogansvg" fill="#333" transform="translate(4.999992370605469,46.230003356933594)"><rect x="0" height="1" y="3.9750003814697266" width="23.94000244140625"></rect> <rect height="1" y="3.9750003814697266" width="23.94000244140625" x="119.61000061035156"></rect> <g transform="translate(26.94000244140625,0)"><g transform="scale(1)"><path d="M2.06-5.06L6.56-5.06L6.56-8.58L7.73-8.58L7.73 0L6.56 0L6.56-3.98L2.06-3.98L2.06 0L0.89 0L0.89-8.58L2.06-8.58L2.06-5.06ZM10.83-1.03L15.98-1.03L15.98 0L9.66 0L9.66-8.58L15.89-8.58L15.89-7.59L10.83-7.59L10.83-4.92L15.52-4.92L15.52-3.89L10.83-3.89L10.83-1.03ZM18.89-8.58L23.20-1.64L23.20-8.58L24.33-8.58L24.33 0L23.02 0L18.66-6.94L18.61-6.94L18.61 0L17.48 0L17.48-8.58L18.89-8.58ZM31.78 0L30.94-2.48L27.47-2.48L26.58 0L25.41 0L28.64-8.58L29.95-8.58L33.05 0L31.78 0ZM29.20-7.31L27.84-3.52L30.52-3.52L29.25-7.31L29.20-7.31ZM35.48-8.58L39.80-1.64L39.80-8.58L40.92-8.58L40.92 0L39.61 0L35.25-6.94L35.20-6.94L35.20 0L34.08 0L34.08-8.58L35.48-8.58ZM45.33-1.92L45.33-2.77L46.41-2.77L46.41-2.16Q46.41-0.75 47.72-0.75L47.72-0.75Q49.08-0.75 49.08-2.25L49.08-2.25L49.08-8.58L50.25-8.58L50.25-2.30Q50.20 0.09 47.77 0.14L47.77 0.14Q45.47 0.09 45.33-1.92L45.33-1.92ZM52.22-8.58L53.39-8.58L53.39 0L52.22 0L52.22-8.58ZM56.77-8.58L61.08-1.64L61.08-8.58L62.20-8.58L62.20 0L60.89 0L56.53-6.94L56.48-6.94L56.48 0L55.36 0L55.36-8.58L56.77-8.58ZM70.41-3.61L67.78-3.61L67.78-4.59L71.53-4.59L71.53 0L70.78 0L70.50-1.08Q69.52 0.09 67.69 0.14L67.69 0.14Q65.95 0.14 65.02-0.75L65.02-0.75Q63.61-2.06 63.66-4.36L63.66-4.36Q63.98-8.63 67.73-8.81L67.73-8.81Q70.92-8.63 71.39-6L71.39-6L70.27-6Q69.80-7.78 67.69-7.83L67.69-7.83Q65.02-7.64 64.88-4.31L64.88-4.31Q64.88-0.75 67.73-0.75L67.73-0.75Q68.77-0.75 69.52-1.31L69.52-1.31Q70.45-2.06 70.41-3.61L70.41-3.61ZM75.52-7.59L72.61-7.59L72.61-8.58L79.55-8.58L79.55-7.59L76.64-7.59L76.64 0L75.52 0L75.52-7.59ZM86.25-3.19L86.25-8.58L87.42-8.58L87.42-3.05Q87.28 0.05 83.91 0.14L83.91 0.14Q80.77 0.05 80.63-2.86L80.63-2.86L80.63-8.58L81.80-8.58L81.80-3.19Q81.84-0.84 83.95-0.80L83.95-0.80Q86.25-0.84 86.25-3.19L86.25-3.19ZM89.39-8.58L90.56-8.58L90.56 0L89.39 0L89.39-8.58Z" transform="translate(-0.890625, 8.8125)"></path></g></g></g></g></g><defs v-gra="od"></defs></svg>